<svg width="58" height="59" xmlns="http://www.w3.org/2000/svg" xmlns:xlink="http://www.w3.org/1999/xlink" xml:space="preserve" overflow="hidden"><g transform="translate(-436 -333)"><g><g><g><g><path d="M476.396 376.507 474.586 376.507 474.586 355.148C474.586 354.673 474.307 354.242 473.874 354.047L473.763 353.996C471.336 352.901 468.823 351.766 465.213 351.766 461.439 351.766 458.67 352.985 455.932 354.344 455.521 354.549 455.261 354.968 455.261 355.427L455.261 376.507 453.493 376.507 453.493 353.71C456.434 351.319 460.674 349.956 465.225 349.956 469.455 349.956 473.489 351.161 476.396 353.276L476.396 376.507ZM465.225 347.539C459.878 347.539 454.871 349.254 451.485 352.246 451.225 352.474 451.077 352.804 451.077 353.151L451.077 377.715C451.077 378.383 451.617 378.923 452.285 378.923L456.469 378.923C457.138 378.923 457.678 378.383 457.678 377.715L457.678 356.18C459.997 355.06 462.244 354.183 465.213 354.183 468.034 354.183 470.086 354.998 472.169 355.93L472.169 377.715C472.169 378.383 472.709 378.923 473.378 378.923L477.604 378.923C478.273 378.923 478.813 378.383 478.813 377.715L478.813 352.678C478.813 352.311 478.645 351.963 478.356 351.732 475.004 349.068 470.218 347.539 465.225 347.539ZM464.945 387.056C451.651 387.056 440.832 376.239 440.832 362.944 440.832 349.649 451.651 338.833 464.945 338.833 478.24 338.833 489.057 349.649 489.057 362.944 489.057 376.239 478.24 387.056 464.945 387.056ZM464.945 336.416C450.317 336.416 438.416 348.317 438.416 362.944 438.416 377.573 450.317 389.473 464.945 389.473 479.573 389.473 491.474 377.573 491.474 362.944 491.474 348.317 479.573 336.416 464.945 336.416Z" fill="#8C4FFF" fill-rule="evenodd" fill-opacity="1"/></g></g></g></g></g></svg>